<?xml version="1.0" encoding="iso-8859-1"?>
<!-- Uploaded to: SVG Repo, www.svgrepo.com, Generator: SVG Repo Mixer Tools -->
<svg fill="#fff" height="800px" width="800px" version="1.1" id="Layer_1" xmlns="http://www.w3.org/2000/svg" xmlns:xlink="http://www.w3.org/1999/xlink" 
	 viewBox="0 0 512 512" xml:space="preserve">
<g>
	<g>
		<path d="M452.923,34.133H59.077C26.502,34.133,0,60.635,0,93.21v228.431c0,32.575,26.502,59.077,59.077,59.077h8.097l-23.33,80.36
			c-1.594,5.49,0.547,11.38,5.296,14.564c2.219,1.487,4.767,2.224,7.31,2.224c2.899,0,5.791-0.958,8.174-2.854l118.542-94.295
			h269.757c32.575,0,59.077-26.502,59.077-59.077V93.21C512,60.635,485.498,34.133,452.923,34.133z M485.744,321.641
			c0,18.097-14.723,32.82-32.82,32.82H178.58c-2.968,0-5.85,1.006-8.172,2.854l-89.849,71.471l16.704-57.537
			c1.151-3.966,0.37-8.242-2.11-11.544c-2.48-3.302-6.368-5.245-10.497-5.245H59.077c-18.097,0-32.82-14.723-32.82-32.82V93.21
			c0-18.097,14.723-32.82,32.82-32.82h393.846c18.097,0,32.82,14.723,32.82,32.82V321.641z"/>
	</g>
</g>
<g>
	<g>
		<path d="M131.282,164.759c-27.146,0-49.231,22.084-49.231,49.231s22.084,49.231,49.231,49.231
			c27.147,0,49.231-22.084,49.231-49.231S158.429,164.759,131.282,164.759z M131.282,236.964c-12.667,0-22.974-10.307-22.974-22.974
			s10.307-22.974,22.974-22.974s22.974,10.307,22.974,22.974S143.949,236.964,131.282,236.964z"/>
	</g>
</g>
<g>
	<g>
		<path d="M256,164.759c-27.146,0-49.231,22.084-49.231,49.231s22.084,49.231,49.231,49.231s49.231-22.084,49.231-49.231
			S283.146,164.759,256,164.759z M256,236.964c-12.667,0-22.974-10.307-22.974-22.974s10.307-22.974,22.974-22.974
			s22.974,10.307,22.974,22.974S268.667,236.964,256,236.964z"/>
	</g>
</g>
<g>
	<g>
		<path d="M380.718,164.759c-27.146,0-49.231,22.084-49.231,49.231s22.084,49.231,49.231,49.231
			c27.147,0,49.231-22.084,49.231-49.231S407.865,164.759,380.718,164.759z M380.718,236.964c-12.667,0-22.974-10.307-22.974-22.974
			s10.307-22.974,22.974-22.974c12.667,0,22.974,10.307,22.974,22.974S393.385,236.964,380.718,236.964z"/>
	</g>
</g>
</svg>